<?xml version="1.0" encoding="UTF-8" standalone="no"?>
<!-- Generator: Adobe Illustrator 15.0.2, SVG Export Plug-In . SVG Version: 6.00 Build 0)  -->

<svg
   xmlns:dc="http://purl.org/dc/elements/1.1/"
   xmlns:cc="http://creativecommons.org/ns#"
   xmlns:rdf="http://www.w3.org/1999/02/22-rdf-syntax-ns#"
   xmlns:svg="http://www.w3.org/2000/svg"
   xmlns="http://www.w3.org/2000/svg"
   xmlns:xlink="http://www.w3.org/1999/xlink"
   xmlns:sodipodi="http://sodipodi.sourceforge.net/DTD/sodipodi-0.dtd"
   xmlns:inkscape="http://www.inkscape.org/namespaces/inkscape"
   version="1.1"
   id="Layer_1"
   x="0px"
   y="0px"
   width="400"
   height="400"
   viewBox="0 0 400 400"
   enable-background="new 0 0 1170 310"
   xml:space="preserve"
   sodipodi:docname="logo.svg"
   inkscape:version="0.92.2 (5c3e80d, 2017-08-06)"
   inkscape:export-filename="/home/huntingbears/Desarrollo/huntingbears.github.io/static/img/site/logo.svg.png"
   inkscape:export-xdpi="26.4"
   inkscape:export-ydpi="26.4"><metadata
     id="metadata182"><rdf:RDF><cc:Work
         rdf:about=""><dc:format>image/svg+xml</dc:format><dc:type
           rdf:resource="http://purl.org/dc/dcmitype/StillImage" /><dc:title /></cc:Work></rdf:RDF></metadata><defs
     id="defs180"><defs
       id="defs144"><path
         inkscape:connector-curvature="0"
         d="M 961.25,132.155 C 961.562,68.752 910.42,17.1 847.018,16.788 783.616,16.475 731.963,67.619 731.652,131.022 c -0.312,63.403 50.831,115.055 114.233,115.369 23.257,0.114 44.918,-6.717 63.06,-18.515 l 34.765,4.61 -11.057,-25.122 C 950.316,187.284 961.109,161 961.25,132.155"
         id="SVGID_11_" /></defs><clipPath
       id="SVGID_12_"><use
         height="100%"
         width="100%"
         y="0"
         x="0"
         style="overflow:visible"
         id="use146"
         overflow="visible"
         xlink:href="#SVGID_11_" /></clipPath></defs><sodipodi:namedview
     pagecolor="#ffffff"
     bordercolor="#666666"
     borderopacity="1"
     objecttolerance="10"
     gridtolerance="10"
     guidetolerance="10"
     inkscape:pageopacity="0"
     inkscape:pageshadow="2"
     inkscape:window-width="1600"
     inkscape:window-height="852"
     id="namedview178"
     showgrid="false"
     inkscape:zoom="0.74700854"
     inkscape:cx="-661.12723"
     inkscape:cy="118.87221"
     inkscape:window-x="0"
     inkscape:window-y="48"
     inkscape:window-maximized="1"
     inkscape:current-layer="Layer_1" /><g
     style="display:none"
     id="g173"
     clip-path="url(#SVGID_12_)"
     display="none"
     transform="translate(-31.784443,-371.85293)"><path
       style="clip-rule:evenodd;display:inline;fill:#841b1e;fill-rule:evenodd"
       inkscape:connector-curvature="0"
       id="path161"
       d="m 848.439,40.494 c 43.129,0.803 55.189,34.125 47.912,73.027 -1.7,9.077 -3.246,18.25 1.146,26.712 4.202,8.102 -6.982,8.447 -10.883,8.799 h -79.049 c -3.359,-0.012 -11.196,0.517 -12.577,-3.576 -0.981,-2.917 1.585,-6.723 2.922,-11.922 2.138,-8.312 -0.374,-17.854 -1.092,-26.391 -3.086,-36.803 6.615,-65.888 49.078,-66.648 0.851,-0.014 1.691,-0.016 2.543,-10e-4 z"
       display="inline" /><path
       style="clip-rule:evenodd;display:inline;fill:#841b1e;fill-rule:evenodd"
       inkscape:connector-curvature="0"
       id="path163"
       d="m 870.713,139.555 -47.137,0.003 -2.47,9.499 c -15.549,7.388 -48.799,17.28 -51.721,34.626 l -7.42,44.148 h 170.353 l -7.423,-44.148 c -2.916,-17.346 -36.167,-27.238 -51.715,-34.624 z"
       display="inline" /><path
       style="clip-rule:evenodd;display:inline;fill:#d22b31;fill-rule:evenodd"
       inkscape:connector-curvature="0"
       id="path165"
       d="m 822.46,156.228 5.087,-4.908 c 1.78,1.27 3.669,2.476 5.653,3.637 10.563,6.187 16.102,6.157 26.652,-0.029 2.794,-1.641 5.337,-3.355 7.643,-5.162 l 4.414,6.394 -16.045,17.846 h -17.442 z"
       display="inline" /><path
       style="clip-rule:evenodd;display:inline;fill:#d22b31;fill-rule:evenodd"
       inkscape:connector-curvature="0"
       id="path167"
       d="m 814.352,112.159 c -1.431,-11.111 11.151,-14.12 19.377,-16.879 8.801,-2.954 19.541,-6.56 29.926,-13.983 3.178,-2.269 5.673,-3.091 7.682,2.762 1.094,3.195 1.742,7.358 3.624,9.646 1.381,1.685 2.354,0.302 3.357,-1.605 1.067,-2.017 2.275,-3.223 3.447,-3.223 2.779,0 4.33,6.73 3.47,15.03 -0.867,8.3 -3.818,15.033 -6.596,15.033 -0.523,0.024 -0.723,0.077 -0.827,0.625 -0.895,4.606 -2.243,8.786 -3.928,11.965 -4.104,7.754 -10.793,13.915 -20.491,19.177 -4.574,2.688 -9.041,2.688 -13.617,0 -5.605,-3.04 -12.318,-7.619 -16.146,-12.816 -3.744,-1.309 -7.304,-2.974 -10.723,-5.082 -2.408,-1.256 -3.076,-3.667 -3.216,-4.3 8.171,5.825 17.283,8.802 27.209,10.255 0.713,1.802 2.478,3.2 4.591,3.2 h 10.446 c 6.573,0 6.573,-10.648 0,-10.648 H 841.49 c -1.869,0 -3.268,1.149 -4.112,2.635 -6.862,-1.027 -14.043,-3.303 -19.796,-6.276 -1.782,-4.808 -2.819,-10.408 -3.23,-15.516 z"
       display="inline" /><polygon
       style="clip-rule:evenodd;display:inline;fill:#d22b31;fill-rule:evenodd"
       id="polygon169"
       points="788.354,230.505 788.354,251.079 905.928,251.079 905.928,230.553 910.729,178.069 907.638,172.716 786.645,172.716 783.554,178.069 "
       display="inline" /><path
       style="clip-rule:evenodd;display:inline;fill:#841b1e;fill-rule:evenodd"
       inkscape:connector-curvature="0"
       id="path171"
       d="m 795.209,239.748 h 103.866 v 7.146 H 795.209 Z m 0,-3.273 h 103.866 c 1.758,-19.22 3.518,-38.439 5.274,-57.657 l -114.415,-0.003 c 1.76,19.22 3.515,38.44 5.275,57.66 z"
       display="inline" /></g><path
     style="opacity:1;fill:#1baf97;fill-opacity:1;stroke-width:4.35479021"
     d="M 200.00004,50.000027 A 149.99998,149.99998 0 0 0 49.999995,200 149.99998,149.99998 0 0 0 200.00004,349.99997 149.99998,149.99998 0 0 0 267.55351,333.89944 l 21.20843,4.80723 22.28086,5.04925 -6.76892,-21.82234 -3.44164,-11.09969 A 149.99998,149.99998 0 0 0 350.00001,200 149.99998,149.99998 0 0 0 200.00004,50.000027 Z"
     id="path1277-3"
     inkscape:connector-curvature="0" /><path
     style="opacity:1;fill:#179581;fill-opacity:1;stroke-width:4.35479021"
     d="m 197.91865,50.104478 a 149.99998,149.99998 0 0 0 -16.70431,1.22027 c -3.61886,1.64996 -8.00474,4.098078 -14.38603,8.210777 -1.45355,-1.559439 -2.94764,-3.072939 -4.47607,-4.542299 a 149.99998,149.99998 0 0 0 -36.01731,14.439545 c 6.42764,4.010543 12.38816,9.088225 17.63672,15.081519 8.08741,8.980225 13.96162,20.3935 16.97435,32.95769 0.073,0.28969 0.11602,0.58066 0.23182,0.88656 l -36.04279,3.00357 c -3.38698,-9.30756 -9.97828,-17.03443 -18.66593,-21.847822 -3.91538,-2.167422 -8.119535,-3.673395 -12.493195,-4.473508 l -0.07904,-0.945143 A 149.99998,149.99998 0 0 0 55.051759,161.71791 c 3.216144,3.86257 7.140807,7.13155 11.637233,9.61956 3.917125,2.14367 8.110382,3.65046 12.513585,4.47606 l 3.128386,37.08728 v 0.0204 c -2.316313,-0.1002 -4.605873,-0.30979 -6.863098,-0.63945 -8.895351,-1.23873 -17.492541,-3.92605 -25.246262,-7.83627 a 149.99998,149.99998 0 0 0 6.027508,38.11905 c 4.904295,1.3384 9.941386,2.36713 14.903189,3.07745 2.568926,0.40556 5.271195,0.63884 7.994229,0.81266 1.994191,16.56996 3.997721,20.50972 7.647755,27.49575 l 0.272583,0.5248 c 0.170908,0.34761 0.463174,0.57954 0.868721,0.62415 h 0.05857 c 8.619272,1.2746 12.050512,0.9866 20.332032,-1.68138 0.36442,-0.11649 0.65002,-0.40102 0.76936,-0.76427 l 0.18597,-0.5783 c 2.45304,-7.54687 3.828,-11.76652 3.0163,-28.81793 3.98375,-0.99941 7.96042,-2.20955 11.82829,-3.60988 3.79196,-1.33314 7.57251,-2.93856 11.2602,-4.77921 10.26468,13.73104 14.02084,16.16306 20.68359,20.42373 l 0.5095,0.32608 c 0.32271,0.23177 0.69498,0.23058 1.10054,0.11461 8.09089,-3.22245 10.91231,-5.17622 16.76801,-11.61938 0.25549,-0.2839 0.36273,-0.67475 0.28277,-1.04961 l -0.11461,-0.53243 c -1.66569,-7.84292 -2.59623,-12.22673 -12.08051,-26.94038 1.75027,-1.68249 3.42242,-3.39419 4.99831,-5.10276 3.43448,-3.5689 7.54411,-8.24653 10.03481,-12.4881 0.22075,-0.32386 0.4451,-0.64698 0.66236,-0.97317 8.88636,3.82384 14.54122,5.79478 19.46586,6.66441 3.15235,0.57938 5.79557,0.69561 9.15591,0.83815 h 0.54772 c 0.3824,0 0.75208,-0.1514 0.98847,-0.45093 5.39508,-6.83714 6.85877,-9.93938 8.70753,-18.44684 0.0805,-0.37427 -0.021,-0.76279 -0.27768,-1.04958 l -0.39488,-0.43818 c -5.35569,-5.94898 -8.35834,-9.27951 -24.01579,-17.31828 1.14366,-3.74735 4.60094,-15.82629 4.32575,-23.84764 17.48652,-2.03591 21.46346,-4.101 28.56827,-7.79042 l 0.5197,-0.27005 c 0.33951,-0.17556 0.57536,-0.50509 0.62924,-0.884 1.12224,-8.53931 0.83086,-11.95682 -1.83424,-20.26325 h 0.0204 c -0.11695,-0.36442 -0.401,-0.65058 -0.76427,-0.76935 l -0.56555,-0.18088 c -3.17378,-1.03244 -5.68094,-1.8495 -8.82983,-2.42018 -4.88408,-0.88527 -10.91106,-1.05327 -20.62245,-0.57065 -0.87137,-3.75953 -3.8428,-15.644435 -7.99168,-22.507638 -0.0533,-0.110614 -0.10207,-0.223656 -0.15541,-0.33373 14.1007,-10.488899 16.50767,-14.261763 20.81354,-21.009675 l 0.31079,-0.486587 c 0.20626,-0.321547 0.24387,-0.724422 0.10184,-1.080156 -2.73197,-6.868055 -4.58208,-9.94929 -9.0158,-14.307063 z m 31.85717,3.036679 c -3.24804,6.62032 -5.18853,13.984302 -5.46706,21.751013 -2.01737,0.577057 -4.28443,1.450552 -6.52428,2.422722 -3.52604,1.469869 -6.99986,3.194516 -10.36599,5.156255 -0.82386,0.467557 -1.39649,0.812087 -1.62536,0.973161 0.46002,6.025434 1.79478,11.877832 3.7067,17.573032 -0.0718,0.0667 -0.12652,0.11061 -0.15031,0.11466 0,0 0.81316,0.11621 2.20364,0.31844 6.52312,1.15874 12.97618,1.44859 19.17544,0.97062 2.09731,4.34526 5.15595,8.63263 9.84885,13.03583 2.65756,2.60717 5.56365,4.92463 8.69224,6.90897 -2.57645,10.20732 -1.95652,20.6683 -1.95652,20.6683 5.4478,2.60717 11.23867,4.40322 17.20619,5.61989 0.007,-0.007 0.0117,-0.0132 0.0179,-0.0204 h 0.002 c 6.41072,-6.20157 11.86142,-17.88128 11.86142,-17.88127 0,0 1.84728,0.17443 4.92951,-0.0636 7.72937,-0.44612 14.99447,-2.51064 21.48863,-5.84665 5.01618,4.57703 10.71715,8.63119 16.97434,12.04484 4.05571,-2.87847 7.87246,-6.11537 11.27039,-9.73675 A 149.99998,149.99998 0 0 0 308.76028,96.964262 c -6.30211,9.602938 -17.00431,16.099228 -29.33764,16.510698 h -0.0254 c -0.32387,0.0104 -0.64455,0.0162 -0.96551,0 h -0.31846 c -0.21379,0 -0.42818,1.1e-4 -0.64198,-0.005 -0.12339,0 -0.246,-0.008 -0.3694,-0.0104 -0.19466,-0.005 -0.39124,-0.0117 -0.58593,-0.0203 -0.13209,-0.005 -0.26255,-0.013 -0.39232,-0.0204 -0.18598,-0.0104 -0.37252,-0.0198 -0.55792,-0.0331 -0.13324,-0.0104 -0.26417,-0.0221 -0.39742,-0.0331 -0.18135,-0.015 -0.36383,-0.0286 -0.54518,-0.0458 -0.13268,-0.013 -0.26531,-0.0295 -0.39741,-0.0433 -0.18018,-0.0192 -0.35933,-0.0391 -0.54009,-0.0612 -0.13095,-0.0157 -0.26081,-0.033 -0.39232,-0.051 -0.18076,-0.0237 -0.36244,-0.0466 -0.54263,-0.0738 -0.1286,-0.0192 -0.25408,-0.0403 -0.38212,-0.0612 -0.18135,-0.0284 -0.3613,-0.0579 -0.54264,-0.0892 -0.12457,-0.022 -0.24853,-0.0455 -0.37194,-0.0687 -0.18307,-0.0337 -0.36719,-0.0693 -0.55028,-0.10695 -0.11987,-0.0244 -0.23984,-0.0484 -0.3592,-0.0738 -0.18367,-0.0389 -0.36915,-0.0806 -0.55282,-0.12222 -0.11578,-0.0261 -0.23059,-0.0531 -0.34646,-0.0815 -0.18656,-0.0446 -0.37252,-0.09 -0.55792,-0.13757 -0.11063,-0.0289 -0.22364,-0.0583 -0.33373,-0.0866 -0.19003,-0.051 -0.37923,-0.10409 -0.5681,-0.15796 -0.10488,-0.0301 -0.20908,-0.0584 -0.31335,-0.0892 -0.19468,-0.0574 -0.38733,-0.11557 -0.58084,-0.17579 -0.0973,-0.0313 -0.19564,-0.063 -0.29297,-0.0943 -0.19931,-0.0638 -0.39658,-0.129 -0.59359,-0.19616 -0.0898,-0.0313 -0.18023,-0.0604 -0.27003,-0.0917 -0.2051,-0.0719 -0.41119,-0.14689 -0.61396,-0.22163 -0.0817,-0.0307 -0.1615,-0.0591 -0.24203,-0.0892 -0.21262,-0.0805 -0.42424,-0.1645 -0.63688,-0.24966 -0.069,-0.0273 -0.1374,-0.0532 -0.20635,-0.0815 -0.22536,-0.0909 -0.45007,-0.1852 -0.67255,-0.28023 -0.0544,-0.0237 -0.10805,-0.0476 -0.16305,-0.0713 -0.24044,-0.10539 -0.48029,-0.21091 -0.71841,-0.32099 -0.0348,-0.0162 -0.0716,-0.0348 -0.107,-0.051 -0.26245,-0.12221 -0.51999,-0.24703 -0.77955,-0.37449 -0.0105,-0.005 -0.024,-0.0104 -0.0356,-0.0153 -3.5805,-1.77519 -6.83186,-4.12103 -9.63485,-6.9217 l -0.0105,-0.013 c -2.56138,-2.56198 -4.7496,-5.502915 -6.46568,-8.738116 -0.008,-0.01396 -0.0135,-0.03 -0.0204,-0.0433 -0.11414,-0.214943 -0.2248,-0.429809 -0.33372,-0.647074 -0.0214,-0.04226 -0.0449,-0.08504 -0.0662,-0.127435 -0.0996,-0.199304 -0.19542,-0.399613 -0.29043,-0.601226 -0.0301,-0.06196 -0.0602,-0.124043 -0.0892,-0.185973 -0.088,-0.187136 -0.17212,-0.378053 -0.2573,-0.568096 -0.0348,-0.07709 -0.0702,-0.155361 -0.10441,-0.231835 -0.0795,-0.180182 -0.15649,-0.358735 -0.23182,-0.540078 -0.037,-0.08921 -0.0762,-0.177691 -0.11203,-0.267495 -0.0712,-0.17207 -0.14054,-0.346475 -0.20891,-0.519705 -0.0389,-0.100172 -0.0784,-0.200374 -0.11719,-0.3006 -0.0632,-0.166865 -0.12456,-0.333287 -0.18598,-0.501874 -0.0398,-0.108914 -0.0789,-0.21716 -0.11707,-0.326086 -0.0579,-0.162796 -0.11554,-0.327704 -0.17068,-0.491674 -0.0394,-0.115828 -0.0785,-0.231405 -0.11726,-0.349018 -0.051,-0.158178 -0.103,-0.318457 -0.15284,-0.478944 -0.0382,-0.122217 -0.0775,-0.245399 -0.11461,-0.36939 -0.0463,-0.155844 -0.0931,-0.31174 -0.13757,-0.468757 -0.037,-0.130304 -0.0716,-0.259409 -0.10699,-0.389779 -0.0417,-0.152934 -0.0843,-0.30699 -0.12483,-0.461098 -0.0354,-0.135575 -0.0682,-0.272036 -0.10184,-0.407609 -0.037,-0.15064 -0.0754,-0.300861 -0.10957,-0.450913 -0.0336,-0.142527 -0.0644,-0.284309 -0.0968,-0.427996 -0.0325,-0.145995 -0.0661,-0.291027 -0.0968,-0.438183 -0.0319,-0.149478 -0.0602,-0.299478 -0.0892,-0.44837 -0.0285,-0.142525 -0.0561,-0.286851 -0.0816,-0.430525 -0.0289,-0.155269 -0.0543,-0.310369 -0.0816,-0.466213 -0.0238,-0.139056 -0.0498,-0.279548 -0.0714,-0.420339 -0.0254,-0.162222 -0.0476,-0.323791 -0.0714,-0.486587 -0.0192,-0.135 -0.0405,-0.270066 -0.0586,-0.405065 -0.0238,-0.171495 -0.0435,-0.344491 -0.0636,-0.517148 -0.0157,-0.128609 -0.0325,-0.258039 -0.0459,-0.387222 -0.0192,-0.18193 -0.0356,-0.364643 -0.0534,-0.547734 -0.0117,-0.121044 -0.0222,-0.240666 -0.0332,-0.361749 -0.0162,-0.20683 -0.0293,-0.415577 -0.0434,-0.624155 -0.007,-0.0973 -0.0172,-0.195053 -0.023,-0.29297 -0.0173,-0.306482 -0.0311,-0.615365 -0.0407,-0.924756 -0.24647,-7.449808 1.76033,-14.447294 5.39573,-20.352415 a 149.99998,149.99998 0 0 0 -17.24696,-4.616164 z m -66.83763,86.647403 c -0.28794,5.00054 -1.06658,9.982 -2.34121,14.78091 h 0.002 c -0.20047,0.78099 -0.41127,1.55733 -0.63434,2.32847 -3.34238,11.57463 -9.14807,22.01919 -16.88264,30.3592 -1.08689,1.20219 -2.20346,2.36893 -3.35003,3.49525 -8.01383,7.87826 -17.39012,13.83298 -27.35818,17.34628 -2.86092,1.0336 -5.74354,1.897 -8.63112,2.60615 l -3.10037,-36.71279 c 9.30642,-3.38641 17.03222,-9.98085 21.84272,-18.66848 2.17322,-3.92175 3.67653,-8.11943 4.47606,-12.49831 z m 89.98979,44.65353 c -3.83496,0.009 -7.11313,0.73987 -12.29449,2.39726 -0.36558,0.11648 -0.65174,0.40296 -0.76935,0.75406 l -0.18853,0.5783 c -2.43277,7.48197 -3.79114,11.67178 -3.04432,28.19888 -8.26298,1.87657 -16.22212,4.62403 -23.68207,8.16745 -9.8035,-13.03175 -13.49956,-15.38955 -20.10785,-19.60852 l -0.48913,-0.31081 c -0.32271,-0.20625 -0.72383,-0.24639 -1.08015,-0.10453 -8.08973,3.22012 -10.90863,5.1747 -16.76547,11.62193 -0.25781,0.28099 -0.36213,0.66965 -0.28276,1.04449 l 0.11461,0.52225 c 1.62803,7.64766 2.54928,11.93397 11.23982,25.59783 -6.3412,5.88406 -11.90827,12.32139 -16.56931,19.15506 -7.93214,-3.36266 -13.11039,-5.08935 -17.71059,-5.92306 -3.14597,-0.57068 -5.78146,-0.68984 -9.11515,-0.83815 l -0.56809,-0.0254 c -0.38471,-0.0169 -0.75092,0.15137 -0.98847,0.46367 -5.39392,6.83366 -6.86015,9.93729 -8.71008,18.44938 -0.0805,0.34762 7.5e-4,0.75154 0.29043,1.04703 l 0.40251,0.46367 c 5.2039,5.7937 8.11117,9.03749 22.24779,16.38331 -2.47159,8.13957 -4.03817,16.55065 -4.65693,25.02972 -15.69802,1.95015 -19.55456,3.95181 -26.44616,7.53058 l -0.5197,0.27257 c -0.33951,0.17555 -0.575,0.50569 -0.6318,0.88401 -0.10253,0.70489 -0.1783,1.32824 -0.25984,1.96925 a 149.99998,149.99998 0 0 0 65.33711,21.25424 c -0.78687,-2.37982 -1.466,-4.7945 -2.0304,-7.23504 l 38.08084,-3.21503 c 1.07145,2.9513 2.46339,5.73923 4.13977,8.32543 a 149.99998,149.99998 0 0 0 39.68325,-13.3925 l 21.20839,4.80724 11.16592,2.52971 c 1.24795,-2.86909 2.16832,-5.85778 2.73098,-8.93937 l 4.70534,-0.3974 -3.09018,-9.96604 -3.44176,-11.09968 c -3.38698,-9.30759 -9.97827,-17.03445 -18.66592,-21.84783 -3.91538,-2.16743 -8.11955,-3.6734 -12.49321,-4.47351 l -3.13349,-37.08474 c 2.64598,0.1738 5.32913,0.52052 7.99422,1.04195 3.09674,0.57937 6.19991,1.332 9.27056,2.25203 1.84704,0.57939 3.70669,1.21718 5.50272,1.8852 11.3174,4.22939 21.78453,11.58771 30.3592,21.37908 2.11824,2.35205 4.07911,4.87535 5.88229,7.5382 a 149.99998,149.99998 0 0 0 16.34257,-33.17935 c -5.45526,-5.7613 -11.4366,-10.91544 -17.82524,-15.33372 6.81105,-15.83939 7.01121,-20.29992 7.36752,-28.27786 l 0.023,-0.52224 c 0.0169,-0.38354 -0.15278,-0.7509 -0.45347,-0.98845 -6.83946,-5.39624 -9.93972,-6.86248 -18.44428,-8.71008 -0.3928,-0.0887 -0.76629,0.0227 -1.04959,0.27767 l -0.45089,0.40511 c -5.89451,5.30355 -9.19053,8.27033 -16.99985,23.40694 -8.03179,-2.47681 -16.24266,-4.08608 -24.27562,-4.75119 -1.9913,-16.61053 -4.02439,-20.52858 -7.6605,-27.53142 l -0.27515,-0.5299 c -0.17554,-0.3395 -0.48943,-0.56436 -0.88399,-0.62923 -3.2331,-0.46995 -5.73402,-0.72428 -8.03498,-0.71842 z m -7.85155,64.56011 3.15131,37.33185 c -9.30639,3.38873 -17.03128,9.9797 -21.84526,18.65575 -2.17381,3.92059 -3.67908,8.11977 -4.47862,12.49574 l -38.18272,3.22267 c 0.69409,-11.2925 3.80409,-22.46609 9.07693,-32.51698 5.2572,-9.92981 13.15344,-18.94502 22.91524,-26.18886 0.65179,-0.48321 1.31007,-0.95849 1.97691,-1.42664 8.06714,-5.49763 17.4193,-9.43451 27.38621,-11.57353 z"
     id="path1277"
     inkscape:connector-curvature="0" /><g
     aria-label="{HB}"
     style="font-style:normal;font-weight:normal;font-size:44.52172852px;line-height:1.25;font-family:sans-serif;letter-spacing:0px;word-spacing:0px;fill:#ffffff;fill-opacity:1;stroke:none;stroke-width:1.11304319"
     id="text1335"
     transform="matrix(1.1718751,0,0,1.1718751,24.21874,24.218731)"><path
       inkscape:connector-curvature="0"
       d="m 35.725586,149.34703 q 13.712692,-7.0196 13.712692,-30.69031 0,-26.609158 16.48788,-34.934721 l 1.958956,4.081158 q -13.549446,6.856347 -13.549446,30.853563 0,22.85448 -11.753736,31.34329 11.753736,8.48881 11.753736,31.3433 0,23.99721 13.549446,30.85356 l -1.958956,4.08116 q -16.48788,-8.32557 -16.48788,-34.93472 0,-23.67072 -13.712692,-30.69031 z"
       style="font-style:normal;font-variant:normal;font-weight:normal;font-stretch:normal;font-size:163.24633789px;font-family:Megrim;-inkscape-font-specification:Megrim;letter-spacing:-15.11512661px;fill:#ffffff;stroke-width:1.11304319"
       id="path856" /><path
       inkscape:connector-curvature="0"
       d="m 144.75675,207.13623 h -4.89739 V 150.00001 H 81.090674 v 57.13622 h -4.89739 V 92.863794 h 4.89739 V 145.10262 H 139.85936 V 92.863794 h 4.89739 z"
       style="font-style:normal;font-variant:normal;font-weight:500;font-stretch:normal;font-size:163.24633789px;font-family:Megrim;-inkscape-font-specification:'Megrim Medium';letter-spacing:-15.11512661px;fill:#ffffff;stroke-width:1.11304319"
       id="path858" /><path
       inkscape:connector-curvature="0"
       d="M 187.95118,207.13623 H 161.83176 V 92.863794 h 19.91605 q 21.54852,0 32.48603,7.999066 10.9375,7.83583 10.9375,22.20151 0,16.32463 -13.71269,23.99721 19.91605,7.50933 19.91605,28.24161 0,14.69217 -10.77426,23.34423 -10.77426,8.48881 -32.64926,8.48881 z m 0,-4.89739 q 7.67257,0 14.03918,-1.14272 6.36661,-1.30597 12.08023,-4.08116 5.87687,-2.93844 9.14179,-8.48881 3.26493,-5.55038 3.26493,-13.22296 0,-17.46735 -16.81437,-23.67071 l -9.79478,-3.59142 9.14179,-5.22389 q 11.264,-6.20336 11.264,-19.7528 0,-25.303186 -38.52614,-25.303186 H 166.72915 V 202.23884 Z"
       style="font-style:normal;font-variant:normal;font-weight:500;font-stretch:normal;font-size:163.24633789px;font-family:Megrim;-inkscape-font-specification:'Megrim Medium';letter-spacing:-15.11512661px;fill:#ffffff;stroke-width:1.11304319"
       id="path860" /><path
       inkscape:connector-curvature="0"
       d="m 264.2744,150.653 q -13.71269,7.01959 -13.71269,30.69031 0,26.60915 -16.48788,34.93472 l -1.95896,-4.08116 q 13.54945,-6.85635 13.54945,-30.85356 0,-22.85449 11.75373,-31.3433 -11.75373,-8.48881 -11.75373,-31.34329 0,-23.997216 -13.54945,-30.853563 l 1.95896,-4.081158 q 16.48788,8.325563 16.48788,34.934721 0,23.67071 13.71269,30.69031 z"
       style="font-style:normal;font-variant:normal;font-weight:normal;font-stretch:normal;font-size:163.24633789px;font-family:Megrim;-inkscape-font-specification:Megrim;letter-spacing:-15.11512661px;fill:#ffffff;stroke-width:1.11304319"
       id="path862" /></g></svg>